<svg width="24" height="24" viewBox="0 0 24 24" fill="none" xmlns="http://www.w3.org/2000/svg">
<path d="M4 6C4 5.72386 4.22386 5.5 4.5 5.5H6.16667C6.44281 5.5 6.66667 5.72386 6.66667 6V7.6C6.66667 7.87614 6.44281 8.1 6.16667 8.1H4.5C4.22386 8.1 4 7.87614 4 7.6V6ZM8 6C8 5.72386 8.22386 5.5 8.5 5.5H19.5C19.7761 5.5 20 5.72386 20 6V7.6C20 7.87614 19.7761 8.1 19.5 8.1H8.5C8.22386 8.1 8 7.87614 8 7.6V6ZM4 11.2C4 10.9239 4.22386 10.7 4.5 10.7H6.16667C6.44281 10.7 6.66667 10.9239 6.66667 11.2V12.8C6.66667 13.0761 6.44281 13.3 6.16667 13.3H4.5C4.22386 13.3 4 13.0761 4 12.8V11.2ZM8 11.2C8 10.9239 8.22386 10.7 8.5 10.7H19.5C19.7761 10.7 20 10.9239 20 11.2V12.8C20 13.0761 19.7761 13.3 19.5 13.3H8.5C8.22386 13.3 8 13.0761 8 12.8V11.2ZM4 16.4C4 16.1239 4.22386 15.9 4.5 15.9H6.16667C6.44281 15.9 6.66667 16.1239 6.66667 16.4V18C6.66667 18.2761 6.44281 18.5 6.16667 18.5H4.5C4.22386 18.5 4 18.2761 4 18V16.4ZM8 16.4C8 16.1239 8.22386 15.9 8.5 15.9H19.5C19.7761 15.9 20 16.1239 20 16.4V18C20 18.2761 19.7761 18.5 19.5 18.5H8.5C8.22386 18.5 8 18.2761 8 18V16.4Z" fill="#1893CC"/>
</svg>
