<svg width="16" height="16" viewBox="0 0 16 16" fill="none" xmlns="http://www.w3.org/2000/svg">
<path fill-rule="evenodd" clip-rule="evenodd" d="M5.66663 1C5.29844 1 4.99996 1.29848 4.99996 1.66667V2.33333H3.66663C2.56206 2.33333 1.66663 3.22876 1.66663 4.33333V12.3333C1.66663 13.4379 2.56206 14.3333 3.66663 14.3333H12.3333C13.4379 14.3333 14.3333 13.4379 14.3333 12.3333V4.33333C14.3333 3.22876 13.4379 2.33333 12.3333 2.33333H11V1.66667C11 1.29848 10.7015 1 10.3333 1C9.9651 1 9.66663 1.29848 9.66663 1.66667V2.33333H6.33329V1.66667C6.33329 1.29848 6.03482 1 5.66663 1ZM9.66663 4.33333V3.66667H6.33329V4.33333C6.33329 4.70152 6.03482 5 5.66663 5C5.29844 5 4.99996 4.70152 4.99996 4.33333V3.66667H3.66663C3.31517 3.66667 3.02724 3.93863 3.00179 4.28358L2.99996 4.33333V6.33333H13V4.33333C13 3.98188 12.728 3.69394 12.383 3.6685L12.3333 3.66667H11V4.33333C11 4.70152 10.7015 5 10.3333 5C9.9651 5 9.66663 4.70152 9.66663 4.33333ZM13 7.66667H2.99996V12.3333C2.99996 12.6848 3.27192 12.9727 3.61687 12.9982L3.66663 13H12.3333C12.6847 13 12.9727 12.728 12.9981 12.3831L13 12.3333V7.66667Z" fill="#929AA6"/>
</svg>
