<svg width="14" height="14" viewBox="0 0 14 14" fill="none" xmlns="http://www.w3.org/2000/svg">
<path d="M8.75 12.0724L8.75 1.31249C8.75 1.18474 8.70902 1.07989 8.62706 0.997931C8.54511 0.915974 8.44025 0.874994 8.3125 0.874994C8.18475 0.874994 8.0799 0.915974 7.99794 0.997931C7.91598 1.07989 7.875 1.18474 7.875 1.31249L7.875 11.0057L4.55263 7.69693C4.46133 7.60564 4.35881 7.55999 4.24506 7.55999C4.13131 7.55999 4.03098 7.60564 3.94406 7.69693C3.85715 7.78822 3.81383 7.89074 3.81413 8.00449C3.81442 8.11824 3.8554 8.22076 3.93706 8.31206L7.9975 12.3725C8.06137 12.4364 8.13662 12.4773 8.22325 12.4954C8.30987 12.5135 8.39417 12.5043 8.47612 12.4679C8.55808 12.4314 8.62415 12.3791 8.67431 12.3108C8.72448 12.2426 8.74956 12.1628 8.74956 12.0715L8.75 12.0724Z" fill="#929AA7"/>
</svg>
