<svg width="14" height="14" viewBox="0 0 14 14" fill="none" xmlns="http://www.w3.org/2000/svg">
<path d="M5.25 1.92763L5.25 12.6875C5.25 12.8153 5.29098 12.9201 5.37294 13.0021C5.4549 13.084 5.55975 13.125 5.6875 13.125C5.81525 13.125 5.9201 13.084 6.00206 13.0021C6.08402 12.9201 6.125 12.8153 6.125 12.6875L6.125 2.99426L9.44738 6.30307C9.53867 6.39436 9.64119 6.44001 9.75494 6.44001C9.86869 6.44001 9.96902 6.39436 10.0559 6.30307C10.1429 6.21178 10.1862 6.10926 10.1859 5.99551C10.1856 5.88176 10.1446 5.77924 10.0629 5.68794L6.0025 1.62751C5.93863 1.56363 5.86338 1.52265 5.77675 1.50457C5.69013 1.48648 5.60583 1.49567 5.52388 1.53213C5.44192 1.56859 5.37585 1.62094 5.32569 1.68919C5.27552 1.75744 5.25044 1.83721 5.25044 1.92851L5.25 1.92763Z" fill="#929AA7"/>
</svg>
